<svg xmlns="http://www.w3.org/2000/svg" viewBox="0 0 825.6 778.92"><defs><style>.cls-1{fill:#020427;}</style></defs><g id="wit"><path class="cls-1" d="M421,59.62c-129.5,0-207.64,106.45-207.64,191.61h0c0-134,102.33-219.74,210.08-219.74,0,0,12.59.54,12.59,14.54C436,58.25,427.53,59.62,421,59.62Z" transform="translate(-8.15 -31.49)"/><path class="cls-1" d="M420.94,446.46c129.5,0,207.64-106.45,207.64-191.62h0c0,134-102.33,219.75-210.08,219.75,0,0-12.59-.54-12.59-14.54C405.91,447.83,414.36,446.46,420.94,446.46Z" transform="translate(-8.15 -31.49)"/><rect class="cls-1" x="456.47" y="648.38" width="1.07" height="3.64" transform="translate(1099.06 161.71) rotate(90)"/><path class="cls-1" d="M57.34,795.1A101.71,101.71,0,0,1,21,753.6Q8.15,727.4,8.15,696.44q0-36.23,16.88-62.08t43.35-38.87q26.46-13,54.06-13,30.85,0,54.23,15.65a103.24,103.24,0,0,1,35.88,41.33A123,123,0,0,1,225.05,694a114.52,114.52,0,0,1-15.58,58.74,116.33,116.33,0,0,1-41.73,42.21,109.26,109.26,0,0,1-56.66,15.47Q80.89,810.4,57.34,795.1Zm97.09-4.92q14.44-11.43,22.56-33.42t8.12-52.58q0-32.35-9.09-57.86t-26.3-39.92A60.81,60.81,0,0,0,109.46,592Q79.9,592,64,616.07T48.08,683.43q0,34.11,9.58,61t26.3,42q16.73,15.12,37.83,15.12A51.26,51.26,0,0,0,154.43,790.18Z" transform="translate(-8.15 -31.49)"/><path class="cls-1" d="M281.65,649c-.22.7-.87,1-1.95.88s-1.62-.53-1.62-1.23q1.29-14.07,2.92-36.41t1.62-33.59a1.79,1.79,0,0,1,3.57,0q0,7.74,18.51,7.74,27.93,1,65.27,1,19.15,0,40.59-.7l22.08-.35q12.33,0,18-1.76a10.28,10.28,0,0,0,7.3-7c.22-.94.92-1.41,2.11-1.41s1.79.47,1.79,1.41q-1,10.55-2.11,33.76t-1.14,37.29c0,.7-.54,2.12-1.62,2.12s-1.73-1.42-1.95-2.12q-4.86-27.09-18.18-40.63t-32.8-13.54q-9.42,0-12.5,4.39t-3.08,16.71V777.69q0,10.9,1.94,15.83a11.16,11.16,0,0,0,7.47,6.68q5.52,1.77,17.54,1.76a2.11,2.11,0,0,1,0,4.22q-11.7,0-18.51-.35L370,805.48l-26.3.35q-6.82.36-18.84.35a2.11,2.11,0,0,1,0-4.22q11.7,0,17.38-1.76a11.66,11.66,0,0,0,7.79-6.86q2.1-5.08,2.11-15.65V614.84q0-12-2.92-16.18t-12-4.22Q298.53,594.44,281.65,649Zm177-.35c0,.7,0,2.12-1.62,2.12s-1.73-1.42-1.95-2.12" transform="translate(-8.15 -31.49)"/><path class="cls-1" d="M598.44,793.52a10.15,10.15,0,0,0,6.34,6.68q4.69,1.77,15.1,1.76a2.11,2.11,0,0,1,0,4.22q-10.73,0-16.89-.35l-24.68-.35-24,.35q-6.51.36-17.54.35a2.16,2.16,0,0,1,0-4.22q10.39,0,15.26-1.76a10.6,10.6,0,0,0,6.66-6.86q1.77-5.08,1.78-15.65V614.84c0-7-.6-12.19-1.78-15.48A11.2,11.2,0,0,0,552,592.5q-4.87-1.92-15.26-1.93a2.16,2.16,0,0,1,0-4.22l17.54.35q14.93.7,24,.7,10.07,0,25-.7l16.56-.35a2.11,2.11,0,0,1,0,4.22c-6.72,0-11.69.7-14.94,2.11a11.25,11.25,0,0,0-6.5,7.21q-1.62,5.1-1.62,15.65V777.69Q596.82,788.6,598.44,793.52Z" transform="translate(-8.15 -31.49)"/><path class="cls-1" d="M745.91,644.39a70.13,70.13,0,0,0,14.77,17.23q8.77,7.38,23.71,17.94a315.62,315.62,0,0,1,26,19.69,76.33,76.33,0,0,1,16.56,20.58q6.83,12.13,6.82,28,0,18.29-9.09,32.53a61.2,61.2,0,0,1-25.16,22.16q-16.08,7.92-35.88,7.91A114.63,114.63,0,0,1,733.08,806q-15.92-4.39-21.43-9.68a12.92,12.92,0,0,1-2.43-2.63,7.54,7.54,0,0,1-.81-4.05l-1-55.92v-.36c0-.93.54-1.46,1.62-1.58a1.56,1.56,0,0,1,2,1.23q9.75,21.47,17,34.82a89.89,89.89,0,0,0,18.51,23.57q11.21,10.2,25.49,10.2,13,0,21.43-7.56t8.44-25.85q0-15.48-6.33-27.09a72.86,72.86,0,0,0-15.42-19.7,299,299,0,0,0-25-19.34A262.66,262.66,0,0,1,731,683.43a73.31,73.31,0,0,1-14.77-18.64Q710,653.89,710,639.11q0-18.65,9.9-31.48a58.85,58.85,0,0,1,25.49-19,88.74,88.74,0,0,1,32.8-6.15,119.44,119.44,0,0,1,23,2.29,90.17,90.17,0,0,1,18.83,5.45,9.06,9.06,0,0,1,3.9,3,7.6,7.6,0,0,1,1,4V649c0,.7-.55,1.23-1.63,1.58s-1.73.18-2-.53l-2.59-6.68q-8.13-22.16-19-37.64t-30.36-15.47q-13,0-21.27,8.09t-8.28,23.56A42.33,42.33,0,0,0,745.91,644.39Z" transform="translate(-8.15 -31.49)"/></g></svg>